# xmcd CD database file
#
# Track frame offsets:
#	150
#	52809
#	114336
#	159685
#
# Disc length: 2843 seconds
#
# Revision: 0
# Processed by: cddbd v1.5.2PL0 Copyright (c) Steve Scherf et al.
# Submitted via: CDex 1.51
#
DISCID=270b1904
DTITLE=Rava - Urbani - D'Andrea - Tommaso - Romano - Live At JazzBO' 90 [CD 1)
DYEAR=1990
DGENRE=Jazz
TTITLE0=Stella By Starlight
TTITLE1=My One And Only Love
TTITLE2=My Funny Valentine
TTITLE3=I Could Write A Book
EXTD=YEAR: 1990
EXTT0=
EXTT1=
EXTT2=
EXTT3=
PLAYORDER=
